<svg width="250" height="250" viewBox="0 0 250 250" fill="none" xmlns="http://www.w3.org/2000/svg">
<path d="M112.5 137.5V175C112.5 178.542 113.7 181.512 116.1 183.912C118.5 186.312 121.467 187.508 125 187.5C128.542 187.5 131.513 186.3 133.913 183.9C136.313 181.5 137.508 178.533 137.5 175V137.5H175C178.542 137.5 181.512 136.3 183.912 133.9C186.312 131.5 187.508 128.533 187.5 125C187.5 121.458 186.3 118.487 183.9 116.087C181.5 113.687 178.533 112.492 175 112.5H137.5V75C137.5 71.4583 136.3 68.4875 133.9 66.0875C131.5 63.6875 128.533 62.4917 125 62.5C121.458 62.5 118.487 63.7 116.087 66.1C113.687 68.5 112.492 71.4667 112.5 75V112.5H75C71.4583 112.5 68.4875 113.7 66.0875 116.1C63.6875 118.5 62.4917 121.467 62.5 125C62.5 128.542 63.7 131.513 66.1 133.913C68.5 136.313 71.4667 137.508 75 137.5H112.5ZM125 250C107.708 250 91.4583 246.717 76.25 240.15C61.0417 233.583 47.8125 224.679 36.5625 213.438C25.3125 202.188 16.4083 188.958 9.85 173.75C3.29167 158.542 0.00833333 142.292 0 125C0 107.708 3.28333 91.4583 9.85 76.25C16.4167 61.0417 25.3208 47.8125 36.5625 36.5625C47.8125 25.3125 61.0417 16.4083 76.25 9.85C91.4583 3.29167 107.708 0.00833333 125 0C142.292 0 158.542 3.28333 173.75 9.85C188.958 16.4167 202.188 25.3208 213.438 36.5625C224.688 47.8125 233.596 61.0417 240.162 76.25C246.729 91.4583 250.008 107.708 250 125C250 142.292 246.717 158.542 240.15 173.75C233.583 188.958 224.679 202.188 213.438 213.438C202.188 224.688 188.958 233.596 173.75 240.162C158.542 246.729 142.292 250.008 125 250ZM125 225C152.917 225 176.562 215.312 195.937 195.937C215.312 176.562 225 152.917 225 125C225 97.0833 215.312 73.4375 195.937 54.0625C176.562 34.6875 152.917 25 125 25C97.0833 25 73.4375 34.6875 54.0625 54.0625C34.6875 73.4375 25 97.0833 25 125C25 152.917 34.6875 176.562 54.0625 195.937C73.4375 215.312 97.0833 225 125 225Z" fill="#CCCCCC"/>
</svg>
