<svg width="34" height="34" viewBox="0 0 34 34" fill="none" xmlns="http://www.w3.org/2000/svg">
<path d="M28.7 30.4H5.3C3.3 30.4 1.7 28.8 1.7 26.8V7.2C1.7 5.2 3.3 3.6 5.3 3.6H28.7C28.9 3.6 29.1 3.8 29.1 4V30C29.1 30.2 28.9 30.4 28.7 30.4ZM5.3 4.3C3.7 4.3 2.4 5.6 2.4 7.2V26.8C2.4 28.4 3.7 29.7 5.3 29.7H28.3V4.3H5.3Z" fill="white"/>
<path d="M31.1 12.9H28.7C28.5 12.9 28.3 12.7 28.3 12.5V4.3C28.3 4.1 28.5 3.9 28.7 3.9H31.1C31.8 3.9 32.4 4.5 32.4 5.2V11.5C32.4 11.8 32.3 12.2 32 12.4C31.8 12.8 31.4 12.9 31.1 12.9ZM29.1 12.1H31.1C31.2 12.1 31.4 12 31.5 11.9C31.6 11.8 31.7 11.7 31.7 11.5V5.3C31.7 5 31.5 4.8 31.2 4.8H29.2V12.1H29.1Z" fill="white"/>
<path d="M30.3 21.1H28.7C28.5 21.1 28.3 20.9 28.3 20.7V12.5C28.3 12.3 28.5 12.1 28.7 12.1H30.3C31 12.1 31.6 12.7 31.6 13.4V19.7C31.6 20.5 31 21.1 30.3 21.1ZM29.1 20.3H30.3C30.6 20.3 30.8 20.1 30.8 19.8V13.5C30.8 13.2 30.6 13 30.3 13H29.1V20.3Z" fill="white"/>
<path d="M29.4 29.3H28.7C28.5 29.3 28.3 29.1 28.3 28.9V20.7C28.3 20.5 28.5 20.3 28.7 20.3H29.4C30.1 20.3 30.7 20.9 30.7 21.6V28C30.7 28.7 30.1 29.3 29.4 29.3ZM29.1 28.5H29.5C29.8 28.5 30 28.3 30 28V21.7C30 21.4 29.8 21.2 29.5 21.2H29.1V28.5Z" fill="white"/>
<path d="M14.9 25C12.7 25 10.3 23.3 10.2 23.2C10.1 23.1 10.1 23 9.99999 22.9C9.99999 22.9 9.29999 18.2 12.9 16.4C13 16.3 13.2 16.4 13.3 16.5C14.4 17.5 16.2 17.5 17.2 16.5C17.3 16.4 17.5 16.4 17.6 16.4C21.2 18.1 20.5 22.8 20.5 22.8C20.5 22.9 20.4 23 20.4 23C19.3 24.3 17 25 14.9 25ZM10.8 22.7C11.3 23 13.2 24.2 14.9 24.2C16.8 24.2 18.8 23.6 19.9 22.7C20 22 20.2 18.7 17.6 17.3C16.3 18.4 14.3 18.4 13 17.3C10.6 18.8 10.7 22 10.8 22.7Z" fill="white"/>
<path d="M15.3 17.2C13.3 17.2 11.8 15.6 11.8 13.7C11.8 11.8 13.4 10.2 15.3 10.2C17.2 10.2 18.8 11.8 18.8 13.7C18.8 15.6 17.3 17.2 15.3 17.2ZM15.3 10.9C13.8 10.9 12.5 12.1 12.5 13.7C12.5 15.3 13.7 16.5 15.3 16.5C16.9 16.5 18.1 15.3 18.1 13.7C18.1 12.1 16.8 10.9 15.3 10.9Z" fill="white"/>
<path d="M15.3 25.1C10.8 25.1 7.09999 21.4 7.09999 16.9C7.09999 12.4 10.8 8.7 15.3 8.7C19.8 8.7 23.5 12.4 23.5 16.9C23.5 21.4 19.8 25.1 15.3 25.1ZM15.3 9.6C11.2 9.6 7.89999 12.9 7.89999 17C7.89999 21.1 11.2 24.4 15.3 24.4C19.4 24.4 22.7 21.1 22.7 17C22.7 12.9 19.4 9.6 15.3 9.6Z" fill="white"/>
</svg>
