<svg width="34" height="34" viewBox="0 0 34 34" fill="none" xmlns="http://www.w3.org/2000/svg">
<path d="M17 30.2C9.7 30.2 3.8 24.3 3.8 17C3.8 10 9.2 4.3 16.1 3.8C16.2 3.8 16.3 3.8 16.4 3.9C16.5 4 16.5 4.1 16.5 4.2V17.5H29.8C29.9 17.5 30 17.5 30.1 17.6C30.2 17.7 30.2 17.8 30.2 17.9C29.7 24.8 24 30.2 17 30.2ZM15.8 4.6C9.5 5.2 4.6 10.6 4.6 17C4.6 23.9 10.2 29.5 17.1 29.5C23.5 29.5 28.9 24.6 29.5 18.3H16.2C16 18.3 15.8 18.1 15.8 17.9V4.6Z" fill="white"/>
<path d="M29 16.5H18.4C18.3 16.5 18.1 16.4 18.1 16.3C18 16.2 18 16.1 18 16L22.5 6.4C22.5 6.3 22.6 6.2 22.7 6.2C22.8 6.2 22.9 6.2 23 6.2C26.6 8.3 29 11.9 29.2 16.1C29.2 16.2 29.2 16.3 29.1 16.4C29 16.5 29.1 16.5 29 16.5ZM19 15.7H28.6C28.2 12.1 26.2 8.9 23.1 7L19 15.7Z" fill="white"/>
<path d="M17.9 5V13.2L21.4 5.8C20.3 5.4 19.1 5.1 17.9 5Z" fill="white"/>
</svg>
