<svg width="34" height="34" viewBox="0 0 34 34" fill="none" xmlns="http://www.w3.org/2000/svg">
<path d="M8.7 32.5C8.6 32.5 8.6 32.5 8.5 32.5L7.4 32C7.3 31.9 7.2 31.8 7.2 31.7V2.4C7.2 2.3 7.3 2.1 7.4 2.1L8.5 1.6C8.6 1.6 8.7 1.6 8.8 1.6L11.3 2.8C11.4 2.8 11.5 2.8 11.5 2.8L14 1.6C14.1 1.6 14.2 1.6 14.3 1.6L16.8 2.8C16.9 2.8 17 2.8 17 2.8L19.5 1.6C19.6 1.6 19.7 1.6 19.8 1.6L22.3 2.8C22.4 2.8 22.5 2.8 22.5 2.8L25 1.6C25.1 1.6 25.2 1.6 25.3 1.6L26.4 2.1C26.5 2.2 26.6 2.3 26.6 2.4V31.5C26.6 31.6 26.5 31.8 26.4 31.8L25.3 32.3C25.2 32.3 25.1 32.3 25 32.3L22.5 31.1C22.4 31.1 22.3 31.1 22.3 31.1L19.8 32.3C19.7 32.3 19.6 32.3 19.5 32.3L17 31.1C16.9 31.1 16.8 31.1 16.8 31.1L14.3 32.3C14.2 32.3 14.1 32.3 14 32.3L11.5 31.1C11.4 31.1 11.3 31.1 11.3 31.1L8.8 32.3C8.8 32.4 8.7 32.5 8.7 32.5ZM8 31.3L8.7 31.6L11 30.5C11.3 30.4 11.6 30.4 11.9 30.5L14.2 31.6L16.5 30.5C16.8 30.4 17.1 30.4 17.4 30.5L19.7 31.6L22 30.5C22.3 30.4 22.6 30.4 22.9 30.5L25.2 31.6L25.9 31.3V2.7L25.2 2.4L23 3.4C22.7 3.5 22.4 3.5 22.1 3.4L19.8 2.3L17.5 3.4C17.2 3.5 16.9 3.5 16.6 3.4L14.3 2.3L12 3.4C11.7 3.5 11.4 3.5 11.1 3.4L8.7 2.3L8 2.7V31.3Z" fill="white"/>
<path d="M23.5 21.3H11.2C11 21.3 10.8 21.1 10.8 20.9C10.8 20.7 11 20.5 11.2 20.5H23.5C23.7 20.5 23.9 20.7 23.9 20.9C23.9 21.1 23.7 21.3 23.5 21.3Z" fill="white"/>
<path d="M19.8 25.6H11.2C11 25.6 10.8 25.4 10.8 25.2C10.8 25 11 24.8 11.2 24.8H19.8C20 24.8 20.2 25 20.2 25.2C20.2 25.4 20 25.6 19.8 25.6Z" fill="white"/>
<path d="M23.4 17H11.3C11.1 17 10.9 16.8 10.9 16.6V8.9C10.9 8.7 11.1 8.5 11.3 8.5H23.4C23.6 8.5 23.8 8.7 23.8 8.9V16.7C23.7 16.8 23.6 17 23.4 17ZM11.7 16.2H23V9.2H11.7V16.2Z" fill="white"/>
<path d="M16.6 14.2C16.8 14.4 17 14.5 17.2 14.5V12.9C17 12.8 16.8 12.8 16.7 12.7C16.5 12.6 16.4 12.6 16.3 12.5C16.2 12.4 16.1 12.3 16.1 12.2C16.1 12.1 16 11.9 16 11.8C16 11.6 16 11.5 16.1 11.3C16.2 11.2 16.3 11 16.4 10.9C16.5 10.8 16.6 10.7 16.8 10.6C16.9 10.5 17.1 10.5 17.3 10.5V10.1H17.6V10.5C17.9 10.5 18.2 10.7 18.4 10.9C18.6 11.1 18.7 11.4 18.8 11.7H18.3C18.2 11.3 18 11.1 17.6 11V12.5L18 12.6C18.1 12.6 18.2 12.7 18.3 12.7C18.4 12.7 18.5 12.8 18.6 12.9C18.7 13 18.8 13.1 18.9 13.2C19 13.3 19 13.5 19 13.7C19 13.9 19 14.1 18.9 14.2C18.8 14.4 18.7 14.5 18.6 14.6C18.5 14.7 18.3 14.8 18.2 14.9C18 15 17.9 15 17.7 15V15.5H17.4V15C17 15 16.7 14.8 16.4 14.6C16.2 14.4 16 14 16 13.6H16.5C16.3 13.8 16.4 14 16.6 14.2ZM16.7 11.1C16.6 11.2 16.5 11.4 16.5 11.6C16.5 11.7 16.5 11.8 16.6 11.9C16.6 12 16.7 12 16.7 12.1C16.8 12.1 16.8 12.2 16.9 12.2C17 12.2 17.1 12.3 17.2 12.3V10.9C17 10.9 16.8 11 16.7 11.1ZM17.8 14.4C17.9 14.4 18 14.3 18 14.3C18.1 14.2 18.1 14.2 18.2 14.1C18.2 14 18.3 13.9 18.3 13.8C18.3 13.7 18.3 13.6 18.2 13.5C18.2 13.4 18.1 13.4 18 13.3C17.9 13.2 17.9 13.2 17.8 13.2C17.7 13.2 17.6 13.1 17.5 13.1V14.6C17.6 14.4 17.7 14.4 17.8 14.4Z" fill="white"/>
</svg>
