<svg width="34" height="34" viewBox="0 0 34 34" fill="none" xmlns="http://www.w3.org/2000/svg">
<path d="M17.5 30.4H6.8C5.1 30.4 3.8 29.1 3.8 27.4V6.6C3.8 4.9 5.1 3.6 6.8 3.6H17.4C19.1 3.6 20.4 4.9 20.4 6.6V9.4C20.4 9.6 20.2 9.8 20 9.8C19.8 9.8 19.6 9.6 19.6 9.4V6.6C19.6 5.4 18.6 4.4 17.4 4.4H6.8C5.6 4.4 4.6 5.4 4.6 6.6V27.4C4.6 28.6 5.6 29.6 6.8 29.6H17.4C18.6 29.6 19.6 28.6 19.6 27.4V24.6C19.6 24.4 19.8 24.2 20 24.2C20.2 24.2 20.4 24.4 20.4 24.6V27.4C20.5 29.1 19.1 30.4 17.5 30.4Z" fill="white"/>
<path d="M29.2 17.4H18.4C18.2 17.4 18 17.2 18 17C18 16.8 18.2 16.6 18.4 16.6H29.2C29.4 16.6 29.6 16.8 29.6 17C29.6 17.2 29.4 17.4 29.2 17.4Z" fill="white"/>
<path d="M25.1 22.1C25 22.1 24.9 22.1 24.8 22C24.7 21.9 24.7 21.6 24.8 21.5L29.3 17L24.8 12.5C24.7 12.4 24.7 12.1 24.8 12C24.9 11.9 25.2 11.9 25.3 12L30 16.7C30.1 16.8 30.1 17.1 30 17.2L25.3 22C25.3 22.1 25.2 22.1 25.1 22.1Z" fill="white"/>
</svg>
