<?xml version="1.0" encoding="utf-8"?>
<!-- Generator: Adobe Illustrator 27.2.0, SVG Export Plug-In . SVG Version: 6.00 Build 0)  -->
<svg version="1.1" id="Layer_1" xmlns="http://www.w3.org/2000/svg" xmlns:xlink="http://www.w3.org/1999/xlink" x="0px" y="0px"
	 viewBox="0 0 454.9 109" style="enable-background:new 0 0 454.9 109;" xml:space="preserve">
<g>
	<g>
		<g>
			<g>
				<g>
					<path d="M36.5,82.5c0,0,23.6,0.5,23.9,0.5c9.9,0,18.7-7.1,18.7-18.1c0-9.7-7-17.8-20.5-17.8c-1.2,0-4.7,0-8.5,0L47.7,43
						c2.5,0,7.2,0,9.2,0c4,0,8.9-2.9,11.4-7.5l2.8-4.5l1.8,10c-1,1.1-2.1,2.2-2.9,3c2.7,0.6,6,2.3,9.5,5.2c3.5,2.9,7.1,9.6,7.1,15.7
						c0,9.7-6.4,22.5-22.5,22.5c-3.8,0-38-0.3-38-0.3v-3.4c1.1-0.3,3.3-1.8,3.3-5.1s0-58.7,0-58.7c0-2.1-1.5-4.2-3.3-4.8
						c0-0.6,0-2.9,0-3.5c0.6,0,27.5-0.2,29.3-0.2c1.8,0,7.2,0,10.9,1.6c2.9,1.2,4.9,2.9,6.4,4.5l-9.8,0c-2-1.1-4.3-1.8-6.7-1.8H36.5
						L36.5,82.5z"/>
				</g>
			</g>
			<g>
				<g>
					<path d="M65.9,20.1c2,0,15.4,0,15.8,0c0,0.5,0,2.8,0,3.6c-2.8,0.9-3.6,2.5-2.7,5.9l3.6,18.9c-0.5-0.5-1-1-1.5-1.4
						c-1.7-1.4-3.4-2.6-5.1-3.6l-3.6-19.7l-6.4,10.5c-2.1,3.7-6.1,6-9.1,6l0,0h-3L65.9,20.1z"/>
				</g>
			</g>
			<g>
				<g>
					<polygon points="51.2,49.5 49.8,51.7 48.6,49.5 39,33 39,46.6 49,62.7 56.9,49.5 					"/>
				</g>
			</g>
			<g>
				<g>
					<path d="M26.8,20.2c-2.8,0-6.7,0-7.1,0c0,0.6,0,3.1,0,3.7c2.9,1.2,3.4,2.7,3,4.6c0,0-11.5,60.2-12,62.7c-0.6,2.6-2.8,3.4-4,3.4
						c0,1.2,0,3.7,0,3.7h14.4c0,0,0-2.8,0-3.7c-3.3,0-4.5-3.4-4-5.7c0.2-1,6.7-36.7,9.7-53.4L26.8,20.2z"/>
				</g>
			</g>
			<g>
				<g>
					<path d="M84.4,89.6c0,3.4-2,4.9-4.2,4.9v3.7h14.4c0,0,0-2.7,0-3.7c-1.9-0.6-3.6-1.1-4.2-5.1l-3-15.5c-1,2.7-2.5,5.5-4.5,7.8
						L84.4,89.6z"/>
				</g>
			</g>
		</g>
		<g>
			<g>
				<g>
					<g>
						<path d="M139.7,52.1c1.2-1.1,1.8-2.8,1.8-4.8c0-3.2-2.7-6.2-6.7-6.2h-12.6v1.6c1,0,1.9,0.6,1.9,1.8c0,0,0,22.6,0,24
							c0,1.4-1,1.8-1.8,1.9V72c0,0,12.7,0,14.3,0c5.9,0,9.6-5.9,9.6-10.1C146.1,57.8,143.7,54.4,139.7,52.1z M133.1,42.8
							c1.8,0,3.2,0.5,4,1.5c1.1,1.3,1.4,2.7,0.8,4.4c-0.3,0.7-1.4,2.1-2.7,2.4c-0.5,0.1-1.1,0.2-2.1,0.2H127l0-8.5L133.1,42.8
							L133.1,42.8z M134.5,69.9c-0.1,0-7.5,0-7.5,0V53.3c0,0,7,0,8.1,0c3.4,0,7.6,3.6,7.6,8.2S138.5,69.9,134.5,69.9z"/>
					</g>
				</g>
			</g>
			<g>
				<g>
					<g>
						<path d="M168.1,68.9l-9.8-29.7l-1.5,4.6l0.6,1.6l-7.8,23.7c-0.4,1.2-1.6,1.3-2.3,1.3V72h6.3v-1.5c-0.6,0-1.9-0.9-1.5-2.4
							l0.5-1.5l11.8,0l0.6,1.7c0.2,0.7-0.2,1.8-1.2,2.2V72h6.8v-1.5C168.9,70.4,168.5,70,168.1,68.9z M153.3,64.4l5.2-15.8l5.2,15.7
							L153.3,64.4z"/>
					</g>
				</g>
			</g>
			<g>
				<path d="M190.3,41.1h5.8v1.6c-1.1,0-1.8,0.9-1.8,1.7v24.2c0,0.7,0.5,1.8,2.1,1.8V72h-4l-15.8-24.7v21.4c0,1.2,1,1.8,2.1,1.8V72
					h-5.8v-1.5c1,0,1.8-0.7,1.8-1.6l0-24.4c0-0.8-0.5-1.7-1.8-1.7c-0.1,0-0.2,0-0.3,0v-1.6h4.2l15.6,24.4l0-21.1
					c0-0.9-0.7-1.7-2-1.7L190.3,41.1"/>
			</g>
			<g>
				<path d="M218.1,40.9c-1.2-0.3-2.5-0.5-3.9-0.5c-8.9,0-16.1,7.2-16.1,16.1s7.2,16.1,16.1,16.1c3.8,0,7.2-1.3,10-3.5l-1.5-1.9
					c-2.4,1.9-5.4,3.1-8.7,3.1c-6.6,0-12.6-6.2-12.6-13.8c0-7.6,6.1-13.8,12.6-13.8c3.2,0,6.2,1.1,8.6,3l1.5-1.9l-6-5.3l-1.1,1.4
					L218.1,40.9z"/>
			</g>
			<g>
				<g>
					<g>
						<path d="M239.8,40.5c-9,0-16.4,7.2-16.4,16.1c0,8.9,7.3,16.1,16.4,16.1c9,0,16.4-7.2,16.4-16.1
							C256.1,47.7,248.8,40.5,239.8,40.5z M239.8,70.4c-7.3,0-13.2-6.2-13.2-13.8c0-7.6,5.9-13.8,13.2-13.8
							c7.3,0,13.2,6.2,13.2,13.8C253,64.2,247.1,70.4,239.8,70.4z"/>
					</g>
				</g>
			</g>
			<g>
				<path d="M397,40.9c-1.2-0.3-2.5-0.5-3.9-0.5c-8.9,0-16.1,7.2-16.1,16.1s7.2,16.1,16.1,16.1c3.8,0,7.2-1.3,10-3.5l-1.5-1.9
					c-2.4,1.9-5.4,3.1-8.7,3.1c-6.6,0-12.6-6.2-12.6-13.8c0-7.6,6.1-13.8,12.6-13.8c3.2,0,6.2,1.1,8.6,3l1.5-1.9l-6-5.3l-1.1,1.4
					L397,40.9z"/>
			</g>
			<g>
				<g>
					<g>
						<path d="M418.7,40.5c-9,0-16.4,7.2-16.4,16.1c0,8.9,7.3,16.1,16.4,16.1c9,0,16.4-7.2,16.4-16.1
							C435.1,47.7,427.8,40.5,418.7,40.5z M418.7,70.4c-7.3,0-13.2-6.2-13.2-13.8c0-7.6,5.9-13.8,13.2-13.8
							c7.3,0,13.2,6.2,13.2,13.8C431.9,64.2,426,70.4,418.7,70.4z"/>
					</g>
				</g>
			</g>
			<g>
				<g>
					<g>
						<path d="M268.6,49.2h-6.8v1.4c0.8,0,1.1,0.7,1.1,1v9.6c0,0.5-0.6,1-1.1,1v1.3h7.1c3.5,0,6.9-3.1,6.9-7.2
							C275.7,52.1,272.2,49.2,268.6,49.2z M267.7,62.1H265V50.6h2.7c2.9,0,5.8,2.1,5.8,5.6C273.5,59.8,271,62.1,267.7,62.1z"/>
					</g>
				</g>
			</g>
			<g>
				<path d="M312.3,41.1h4.5v1.6c-1,0-2,0.9-1.8,2.1l5,24.2c0.3,1,1,1.4,1.9,1.4V72h-6.9v-1.5c1.7,0,2.2-1.3,2-1.9
					c-0.3-1.4-4.7-22.7-4.7-22.7L307,57.3l-5.9-11.4l-4,22.6c-0.1,0.8,0.6,2,1.7,2V72h-6.3v-1.5c1.1,0,2.3-0.1,2.5-1.4l4.2-24.3
					c0.2-1.1-0.8-1.9-1.5-2v-1.6h3.9l5.5,10.7L312.3,41.1z"/>
			</g>
			<g>
				<path d="M324.3,41.1h13.6l4.4,2.5l-1.8,1.3l-2.8-1.6h-8.6v7.9h2.4c0.9,0,1.8-0.5,1.8-1.9h1.5v6.2h-1.2c0-0.9-0.6-2.1-1.8-2.1
					h-2.8v16.3h10.5l4.2-2.4l2.1,1.2l-6,3.5h-15.5v-1.5c0.7,0,1.8-0.4,1.8-1.7V44.4c0-0.7-0.6-1.7-1.8-1.7L324.3,41.1L324.3,41.1z"
					/>
			</g>
			<g>
				<path d="M348.3,42.7c0,0-0.4,0-0.4,0v-1.6h6.7v1.6c-0.7,0.2-1.5,1.3-1,2.3l3.4,7.7l3.5-7.5c0.5-1.1-0.2-2.3-1.1-2.5v-1.6h6.3
					v1.6c-0.4,0-0.7,0-0.9,0c-0.9,0-1.4,0.4-1.7,1.2l-5.2,11l6.5,14.5c0.4,1,1.4,1,2.2,1V72h-6.9v-1.5c0.6,0,1.5-1.2,1.1-2.2
					l-4.4-9.9l-4.5,9.6c-0.6,1.4,0.7,2.5,1.2,2.5V72H347v-1.5c0.9,0,1.8,0,2.3-1.1l6.2-13.2L350,43.8
					C349.6,43.1,349.2,42.7,348.3,42.7z"/>
			</g>
			<g>
				<path d="M368.5,42.7v-1.6h6.9v1.6c-0.9,0-2,0.5-2,1.8v24.2c0,0.9,0.7,1.8,2,1.8V72h-6.9v-1.5c1.1,0,1.9-0.6,1.9-1.8
					c0,0,0-23.4,0-24.2C370.4,43.7,369.8,42.7,368.5,42.7z"/>
			</g>
			<g>
				<path d="M276.7,50.6c0.9,0,1.2,0.6,1.2,1.1v9.4c0,0.7-0.6,1.1-1.2,1.1v1.3h8.5l3.9-2.3l-1.3-0.7l-2.9,1.7h-5.1v-7.3h1.5
					c0.6,0,1,0.6,1,1.1v0.3h0.9v-3.7h-1v0.3c0,0.7-0.5,1.1-1,1.1h-1.5v-3.2h4.4l1.7,1l1.1-0.8l-2.6-1.5h-7.8"/>
			</g>
			<g>
				<rect x="329.3" y="33.5" transform="matrix(0.865 -0.5018 0.5018 0.865 27.8037 172.0648)" width="8.8" height="1.7"/>
			</g>
		</g>
	</g>
	<g>
		<g>
			<path d="M440.7,43.6c0.4-0.1,1-0.1,1.6-0.1c0.9,0,1.5,0.2,1.9,0.5c0.3,0.3,0.5,0.7,0.5,1.3c0,0.9-0.6,1.5-1.3,1.7v0
				c0.5,0.2,0.8,0.7,1,1.3c0.2,0.9,0.4,1.6,0.5,1.8h-0.9c-0.1-0.2-0.3-0.8-0.4-1.6c-0.2-0.9-0.6-1.3-1.3-1.3h-0.8v2.9h-0.9V43.6z
				 M441.5,46.6h0.9c0.9,0,1.5-0.5,1.5-1.3c0-0.9-0.6-1.2-1.5-1.2c-0.4,0-0.7,0-0.8,0.1V46.6z"/>
		</g>
	</g>
	<g>
		<path d="M442.8,52.9c-3.3,0-6-2.7-6-6c0-3.3,2.7-6,6-6c3.3,0,6,2.7,6,6C448.7,50.2,446,52.9,442.8,52.9z M442.8,42.1
			c-2.7,0-4.9,2.2-4.9,4.9c0,2.7,2.2,4.9,4.9,4.9c2.7,0,4.9-2.2,4.9-4.9C447.6,44.3,445.4,42.1,442.8,42.1z"/>
	</g>
</g>
</svg>
